<mxfile host="app.diagrams.net" modified="2024-02-15T08:46:12.874Z" agent="Mozilla/5.0 (Windows NT 10.0; Win64; x64) AppleWebKit/537.36 (KHTML, like Gecko) Chrome/121.0.0.0 Safari/537.36" etag="DED_DsTe25YZN8EmReK1" version="23.1.4" type="device">
  <diagram name="Page-1" id="heZqzl5HYKCOqjsPDitz">
    <mxGraphModel dx="2350" dy="746" grid="1" gridSize="10" guides="1" tooltips="1" connect="1" arrows="1" fold="1" page="1" pageScale="1" pageWidth="850" pageHeight="1100" math="0" shadow="0">
      <root>
        <mxCell id="0" />
        <mxCell id="1" parent="0" />
        <mxCell id="TTl-iUv4mYgAIYNXPhZ1-1" value="" style="rounded=0;whiteSpace=wrap;html=1;" parent="1" vertex="1">
          <mxGeometry x="-60" y="90" width="295" height="830" as="geometry" />
        </mxCell>
        <mxCell id="TTl-iUv4mYgAIYNXPhZ1-2" value="Frontend (React)" style="text;html=1;strokeColor=none;fillColor=none;align=center;verticalAlign=middle;whiteSpace=wrap;rounded=0;fontStyle=1;fontSize=19;" parent="1" vertex="1">
          <mxGeometry x="25" y="100" width="160" height="30" as="geometry" />
        </mxCell>
        <mxCell id="TTl-iUv4mYgAIYNXPhZ1-3" value="Record Audio using React-Audio-Recorder" style="rounded=1;whiteSpace=wrap;html=1;" parent="1" vertex="1">
          <mxGeometry x="37.5" y="170" width="135" height="60" as="geometry" />
        </mxCell>
        <mxCell id="TTl-iUv4mYgAIYNXPhZ1-4" value="Convert blob into file using javascript File()" style="rounded=1;whiteSpace=wrap;html=1;" parent="1" vertex="1">
          <mxGeometry x="45" y="260" width="120" height="60" as="geometry" />
        </mxCell>
        <mxCell id="TTl-iUv4mYgAIYNXPhZ1-6" value="Send POST request to backend with the file embedded in body" style="rounded=1;whiteSpace=wrap;html=1;" parent="1" vertex="1">
          <mxGeometry x="40" y="350" width="130" height="60" as="geometry" />
        </mxCell>
        <mxCell id="TTl-iUv4mYgAIYNXPhZ1-7" value="" style="endArrow=classic;html=1;rounded=0;exitX=0.5;exitY=1;exitDx=0;exitDy=0;entryX=0.5;entryY=0;entryDx=0;entryDy=0;" parent="1" source="TTl-iUv4mYgAIYNXPhZ1-3" target="TTl-iUv4mYgAIYNXPhZ1-4" edge="1">
          <mxGeometry width="50" height="50" relative="1" as="geometry">
            <mxPoint x="400" y="390" as="sourcePoint" />
            <mxPoint x="400" y="460" as="targetPoint" />
            <Array as="points" />
          </mxGeometry>
        </mxCell>
        <mxCell id="TTl-iUv4mYgAIYNXPhZ1-8" value="Blob" style="text;html=1;strokeColor=none;fillColor=none;align=center;verticalAlign=middle;whiteSpace=wrap;rounded=0;" parent="1" vertex="1">
          <mxGeometry x="100" y="230" width="60" height="30" as="geometry" />
        </mxCell>
        <mxCell id="ob07LAOkWRFPLTpur0Br-1" value="" style="endArrow=classic;html=1;rounded=0;exitX=0.5;exitY=1;exitDx=0;exitDy=0;entryX=0.5;entryY=0;entryDx=0;entryDy=0;" parent="1" source="TTl-iUv4mYgAIYNXPhZ1-4" target="TTl-iUv4mYgAIYNXPhZ1-6" edge="1">
          <mxGeometry width="50" height="50" relative="1" as="geometry">
            <mxPoint x="450" y="360" as="sourcePoint" />
            <mxPoint x="340" y="250" as="targetPoint" />
          </mxGeometry>
        </mxCell>
        <mxCell id="ob07LAOkWRFPLTpur0Br-2" value="File" style="text;html=1;strokeColor=none;fillColor=none;align=center;verticalAlign=middle;whiteSpace=wrap;rounded=0;" parent="1" vertex="1">
          <mxGeometry x="90" y="320" width="60" height="30" as="geometry" />
        </mxCell>
        <mxCell id="ob07LAOkWRFPLTpur0Br-3" value="" style="rounded=0;whiteSpace=wrap;html=1;" parent="1" vertex="1">
          <mxGeometry x="400" y="95" width="1060" height="830" as="geometry" />
        </mxCell>
        <mxCell id="ob07LAOkWRFPLTpur0Br-4" value="&lt;b&gt;&lt;font style=&quot;font-size: 22px;&quot;&gt;Backend (Django)&lt;/font&gt;&lt;/b&gt;" style="text;html=1;strokeColor=none;fillColor=none;align=center;verticalAlign=middle;whiteSpace=wrap;rounded=0;" parent="1" vertex="1">
          <mxGeometry x="795" y="110" width="270" height="30" as="geometry" />
        </mxCell>
        <mxCell id="ob07LAOkWRFPLTpur0Br-5" value="Receive audio file&amp;nbsp;" style="rounded=1;whiteSpace=wrap;html=1;" parent="1" vertex="1">
          <mxGeometry x="460" y="170" width="120" height="60" as="geometry" />
        </mxCell>
        <mxCell id="ob07LAOkWRFPLTpur0Br-7" value="" style="endArrow=classic;html=1;rounded=0;exitX=1.003;exitY=0.586;exitDx=0;exitDy=0;exitPerimeter=0;entryX=0;entryY=0.5;entryDx=0;entryDy=0;" parent="1" source="TTl-iUv4mYgAIYNXPhZ1-6" target="ob07LAOkWRFPLTpur0Br-5" edge="1">
          <mxGeometry width="50" height="50" relative="1" as="geometry">
            <mxPoint x="390" y="340" as="sourcePoint" />
            <mxPoint x="440" y="290" as="targetPoint" />
            <Array as="points">
              <mxPoint x="330" y="385" />
              <mxPoint x="330" y="200" />
            </Array>
          </mxGeometry>
        </mxCell>
        <mxCell id="ob07LAOkWRFPLTpur0Br-8" value="Post Request" style="text;html=1;strokeColor=none;fillColor=none;align=center;verticalAlign=middle;whiteSpace=wrap;rounded=0;" parent="1" vertex="1">
          <mxGeometry x="250" y="350" width="60" height="30" as="geometry" />
        </mxCell>
        <mxCell id="ob07LAOkWRFPLTpur0Br-14" style="edgeStyle=orthogonalEdgeStyle;rounded=0;orthogonalLoop=1;jettySize=auto;html=1;exitX=0.5;exitY=1;exitDx=0;exitDy=0;entryX=0.5;entryY=0;entryDx=0;entryDy=0;" parent="1" source="ob07LAOkWRFPLTpur0Br-10" target="ob07LAOkWRFPLTpur0Br-13" edge="1">
          <mxGeometry relative="1" as="geometry" />
        </mxCell>
        <mxCell id="ob07LAOkWRFPLTpur0Br-10" value="Convert to text" style="rounded=1;whiteSpace=wrap;html=1;" parent="1" vertex="1">
          <mxGeometry x="460" y="270" width="120" height="60" as="geometry" />
        </mxCell>
        <mxCell id="ob07LAOkWRFPLTpur0Br-11" value="" style="endArrow=classic;html=1;rounded=0;exitX=0.5;exitY=1;exitDx=0;exitDy=0;entryX=0.5;entryY=0;entryDx=0;entryDy=0;" parent="1" source="ob07LAOkWRFPLTpur0Br-5" target="ob07LAOkWRFPLTpur0Br-10" edge="1">
          <mxGeometry width="50" height="50" relative="1" as="geometry">
            <mxPoint x="390" y="320" as="sourcePoint" />
            <mxPoint x="440" y="270" as="targetPoint" />
          </mxGeometry>
        </mxCell>
        <mxCell id="ob07LAOkWRFPLTpur0Br-12" value="Audio File" style="text;html=1;strokeColor=none;fillColor=none;align=center;verticalAlign=middle;whiteSpace=wrap;rounded=0;" parent="1" vertex="1">
          <mxGeometry x="520" y="230" width="60" height="30" as="geometry" />
        </mxCell>
        <mxCell id="ob07LAOkWRFPLTpur0Br-20" style="edgeStyle=orthogonalEdgeStyle;rounded=0;orthogonalLoop=1;jettySize=auto;html=1;exitX=0;exitY=0.5;exitDx=0;exitDy=0;entryX=1;entryY=0.5;entryDx=0;entryDy=0;" parent="1" source="ob07LAOkWRFPLTpur0Br-13" target="ob07LAOkWRFPLTpur0Br-17" edge="1">
          <mxGeometry relative="1" as="geometry" />
        </mxCell>
        <mxCell id="ob07LAOkWRFPLTpur0Br-13" value="Send interpreted text to frontend" style="rounded=1;whiteSpace=wrap;html=1;" parent="1" vertex="1">
          <mxGeometry x="460" y="375" width="120" height="60" as="geometry" />
        </mxCell>
        <mxCell id="ob07LAOkWRFPLTpur0Br-15" value="Text" style="text;html=1;strokeColor=none;fillColor=none;align=center;verticalAlign=middle;whiteSpace=wrap;rounded=0;" parent="1" vertex="1">
          <mxGeometry x="510" y="330" width="60" height="30" as="geometry" />
        </mxCell>
        <mxCell id="ob07LAOkWRFPLTpur0Br-22" style="edgeStyle=orthogonalEdgeStyle;rounded=0;orthogonalLoop=1;jettySize=auto;html=1;exitX=0.5;exitY=1;exitDx=0;exitDy=0;" parent="1" source="ob07LAOkWRFPLTpur0Br-17" target="ob07LAOkWRFPLTpur0Br-18" edge="1">
          <mxGeometry relative="1" as="geometry" />
        </mxCell>
        <mxCell id="ob07LAOkWRFPLTpur0Br-23" style="edgeStyle=orthogonalEdgeStyle;rounded=0;orthogonalLoop=1;jettySize=auto;html=1;exitX=0.5;exitY=1;exitDx=0;exitDy=0;entryX=0.5;entryY=0;entryDx=0;entryDy=0;" parent="1" source="ob07LAOkWRFPLTpur0Br-17" target="ob07LAOkWRFPLTpur0Br-19" edge="1">
          <mxGeometry relative="1" as="geometry" />
        </mxCell>
        <mxCell id="ob07LAOkWRFPLTpur0Br-17" value="Receive Text" style="rounded=1;whiteSpace=wrap;html=1;" parent="1" vertex="1">
          <mxGeometry x="45" y="450" width="120" height="60" as="geometry" />
        </mxCell>
        <mxCell id="ob07LAOkWRFPLTpur0Br-18" value="Display Text on Screen" style="rounded=1;whiteSpace=wrap;html=1;" parent="1" vertex="1">
          <mxGeometry y="570" width="80" height="60" as="geometry" />
        </mxCell>
        <mxCell id="qYYsV1Sxn3G5JcnXwC1t-18" style="edgeStyle=orthogonalEdgeStyle;rounded=0;orthogonalLoop=1;jettySize=auto;html=1;exitX=1;exitY=0.5;exitDx=0;exitDy=0;entryX=0;entryY=0.5;entryDx=0;entryDy=0;" parent="1" source="ob07LAOkWRFPLTpur0Br-19" target="qYYsV1Sxn3G5JcnXwC1t-2" edge="1">
          <mxGeometry relative="1" as="geometry" />
        </mxCell>
        <mxCell id="ob07LAOkWRFPLTpur0Br-19" value="Send POST request to backend with interpreted text in body" style="rounded=1;whiteSpace=wrap;html=1;" parent="1" vertex="1">
          <mxGeometry x="120" y="570" width="90" height="90" as="geometry" />
        </mxCell>
        <mxCell id="ob07LAOkWRFPLTpur0Br-21" value="Response" style="text;html=1;strokeColor=none;fillColor=none;align=center;verticalAlign=middle;whiteSpace=wrap;rounded=0;" parent="1" vertex="1">
          <mxGeometry x="330" y="400" width="60" height="30" as="geometry" />
        </mxCell>
        <mxCell id="ob07LAOkWRFPLTpur0Br-24" value="Text" style="text;html=1;strokeColor=none;fillColor=none;align=center;verticalAlign=middle;whiteSpace=wrap;rounded=0;" parent="1" vertex="1">
          <mxGeometry x="90" y="510" width="60" height="30" as="geometry" />
        </mxCell>
        <mxCell id="qYYsV1Sxn3G5JcnXwC1t-8" style="edgeStyle=orthogonalEdgeStyle;rounded=0;orthogonalLoop=1;jettySize=auto;html=1;exitX=0.5;exitY=1;exitDx=0;exitDy=0;entryX=0.5;entryY=0;entryDx=0;entryDy=0;" parent="1" source="qYYsV1Sxn3G5JcnXwC1t-1" target="qYYsV1Sxn3G5JcnXwC1t-6" edge="1">
          <mxGeometry relative="1" as="geometry" />
        </mxCell>
        <mxCell id="qYYsV1Sxn3G5JcnXwC1t-1" value="Decode Text Commands to get what to do" style="rounded=1;whiteSpace=wrap;html=1;" parent="1" vertex="1">
          <mxGeometry x="460" y="590" width="120" height="60" as="geometry" />
        </mxCell>
        <mxCell id="qYYsV1Sxn3G5JcnXwC1t-3" style="edgeStyle=orthogonalEdgeStyle;rounded=0;orthogonalLoop=1;jettySize=auto;html=1;exitX=0.5;exitY=1;exitDx=0;exitDy=0;entryX=0.5;entryY=0;entryDx=0;entryDy=0;" parent="1" source="qYYsV1Sxn3G5JcnXwC1t-2" target="qYYsV1Sxn3G5JcnXwC1t-1" edge="1">
          <mxGeometry relative="1" as="geometry" />
        </mxCell>
        <mxCell id="qYYsV1Sxn3G5JcnXwC1t-2" value="Receive Text Commands form Frontend" style="rounded=1;whiteSpace=wrap;html=1;" parent="1" vertex="1">
          <mxGeometry x="460" y="480" width="120" height="60" as="geometry" />
        </mxCell>
        <mxCell id="qYYsV1Sxn3G5JcnXwC1t-4" value="Text Command" style="text;html=1;strokeColor=none;fillColor=none;align=left;verticalAlign=middle;whiteSpace=wrap;rounded=0;" parent="1" vertex="1">
          <mxGeometry x="520" y="550" width="60" height="30" as="geometry" />
        </mxCell>
        <mxCell id="qYYsV1Sxn3G5JcnXwC1t-9" style="edgeStyle=orthogonalEdgeStyle;rounded=0;orthogonalLoop=1;jettySize=auto;html=1;exitX=0.5;exitY=1;exitDx=0;exitDy=0;entryX=0.5;entryY=0;entryDx=0;entryDy=0;" parent="1" source="qYYsV1Sxn3G5JcnXwC1t-6" target="qYYsV1Sxn3G5JcnXwC1t-7" edge="1">
          <mxGeometry relative="1" as="geometry" />
        </mxCell>
        <mxCell id="qYYsV1Sxn3G5JcnXwC1t-6" value="Perform tasks accordingly and generate a message" style="rounded=1;whiteSpace=wrap;html=1;" parent="1" vertex="1">
          <mxGeometry x="460" y="690" width="120" height="60" as="geometry" />
        </mxCell>
        <mxCell id="qYYsV1Sxn3G5JcnXwC1t-12" style="edgeStyle=orthogonalEdgeStyle;rounded=0;orthogonalLoop=1;jettySize=auto;html=1;exitX=0;exitY=0.5;exitDx=0;exitDy=0;entryX=1;entryY=0.5;entryDx=0;entryDy=0;" parent="1" source="qYYsV1Sxn3G5JcnXwC1t-7" target="qYYsV1Sxn3G5JcnXwC1t-11" edge="1">
          <mxGeometry relative="1" as="geometry" />
        </mxCell>
        <mxCell id="qYYsV1Sxn3G5JcnXwC1t-7" value="Send Message to Frontend" style="rounded=1;whiteSpace=wrap;html=1;" parent="1" vertex="1">
          <mxGeometry x="460" y="790" width="120" height="60" as="geometry" />
        </mxCell>
        <mxCell id="qYYsV1Sxn3G5JcnXwC1t-10" value="Message" style="text;html=1;strokeColor=none;fillColor=none;align=center;verticalAlign=middle;whiteSpace=wrap;rounded=0;" parent="1" vertex="1">
          <mxGeometry x="520" y="750" width="60" height="30" as="geometry" />
        </mxCell>
        <mxCell id="qYYsV1Sxn3G5JcnXwC1t-14" style="edgeStyle=orthogonalEdgeStyle;rounded=0;orthogonalLoop=1;jettySize=auto;html=1;exitX=0.5;exitY=1;exitDx=0;exitDy=0;entryX=0.5;entryY=0;entryDx=0;entryDy=0;" parent="1" source="qYYsV1Sxn3G5JcnXwC1t-11" target="qYYsV1Sxn3G5JcnXwC1t-13" edge="1">
          <mxGeometry relative="1" as="geometry" />
        </mxCell>
        <mxCell id="qYYsV1Sxn3G5JcnXwC1t-11" value="Receive Message From Backend" style="rounded=1;whiteSpace=wrap;html=1;" parent="1" vertex="1">
          <mxGeometry x="45" y="680" width="120" height="60" as="geometry" />
        </mxCell>
        <mxCell id="qYYsV1Sxn3G5JcnXwC1t-26" style="edgeStyle=orthogonalEdgeStyle;rounded=0;orthogonalLoop=1;jettySize=auto;html=1;exitX=0.5;exitY=1;exitDx=0;exitDy=0;entryX=0.5;entryY=0;entryDx=0;entryDy=0;" parent="1" source="qYYsV1Sxn3G5JcnXwC1t-13" target="TTl-iUv4mYgAIYNXPhZ1-3" edge="1">
          <mxGeometry relative="1" as="geometry">
            <Array as="points">
              <mxPoint x="105" y="870" />
              <mxPoint x="-30" y="870" />
              <mxPoint x="-30" y="150" />
              <mxPoint x="105" y="150" />
            </Array>
          </mxGeometry>
        </mxCell>
        <mxCell id="qYYsV1Sxn3G5JcnXwC1t-13" value="Display Message on Screen" style="rounded=1;whiteSpace=wrap;html=1;" parent="1" vertex="1">
          <mxGeometry x="45" y="790" width="120" height="60" as="geometry" />
        </mxCell>
        <mxCell id="qYYsV1Sxn3G5JcnXwC1t-16" value="Message" style="text;html=1;strokeColor=none;fillColor=none;align=center;verticalAlign=middle;whiteSpace=wrap;rounded=0;" parent="1" vertex="1">
          <mxGeometry x="105" y="750" width="60" height="30" as="geometry" />
        </mxCell>
        <mxCell id="qYYsV1Sxn3G5JcnXwC1t-19" value="Post Request" style="text;html=1;strokeColor=none;fillColor=none;align=center;verticalAlign=middle;whiteSpace=wrap;rounded=0;" parent="1" vertex="1">
          <mxGeometry x="250" y="585" width="60" height="30" as="geometry" />
        </mxCell>
        <mxCell id="qYYsV1Sxn3G5JcnXwC1t-20" value="Response" style="text;html=1;strokeColor=none;fillColor=none;align=center;verticalAlign=middle;whiteSpace=wrap;rounded=0;" parent="1" vertex="1">
          <mxGeometry x="320" y="790" width="60" height="30" as="geometry" />
        </mxCell>
        <mxCell id="qYYsV1Sxn3G5JcnXwC1t-21" value="" style="rounded=1;whiteSpace=wrap;html=1;" parent="1" vertex="1">
          <mxGeometry x="670" y="155" width="220" height="290" as="geometry" />
        </mxCell>
        <mxCell id="sVrVSwpI3EFSwUl0Y2Ym-2" value="ML Model Detects converts the audio to text and saves it in a queue record file" style="rounded=1;whiteSpace=wrap;html=1;" parent="1" vertex="1">
          <mxGeometry x="705" y="240" width="150" height="120" as="geometry" />
        </mxCell>
        <mxCell id="efi1Yd8RC44NTfcg2dbb-4" value="" style="rounded=1;whiteSpace=wrap;html=1;" vertex="1" parent="1">
          <mxGeometry x="920" y="160" width="470" height="740" as="geometry" />
        </mxCell>
        <mxCell id="sVrVSwpI3EFSwUl0Y2Ym-3" value="Scheduler runs a program every 1s" style="rounded=1;whiteSpace=wrap;html=1;" parent="1" vertex="1">
          <mxGeometry x="1000" y="210" width="120" height="60" as="geometry" />
        </mxCell>
        <mxCell id="sVrVSwpI3EFSwUl0Y2Ym-8" value="" style="endArrow=classic;html=1;rounded=0;exitX=1;exitY=0.5;exitDx=0;exitDy=0;" parent="1" target="sVrVSwpI3EFSwUl0Y2Ym-9" edge="1" source="sVrVSwpI3EFSwUl0Y2Ym-7">
          <mxGeometry width="50" height="50" relative="1" as="geometry">
            <mxPoint x="1120" y="435" as="sourcePoint" />
            <mxPoint x="1180" y="435" as="targetPoint" />
          </mxGeometry>
        </mxCell>
        <mxCell id="sVrVSwpI3EFSwUl0Y2Ym-9" value="In case no new record then terminate the program until run again by scheduler" style="rounded=1;whiteSpace=wrap;html=1;" parent="1" vertex="1">
          <mxGeometry x="1215.0000000000005" y="335" width="120" height="60" as="geometry" />
        </mxCell>
        <mxCell id="efi1Yd8RC44NTfcg2dbb-11" style="edgeStyle=orthogonalEdgeStyle;rounded=0;orthogonalLoop=1;jettySize=auto;html=1;exitX=0.5;exitY=1;exitDx=0;exitDy=0;entryX=0.5;entryY=0;entryDx=0;entryDy=0;" edge="1" parent="1" source="sVrVSwpI3EFSwUl0Y2Ym-13" target="sVrVSwpI3EFSwUl0Y2Ym-17">
          <mxGeometry relative="1" as="geometry" />
        </mxCell>
        <mxCell id="sVrVSwpI3EFSwUl0Y2Ym-13" value="Detect the type of operation based on Regular Expression matching" style="rounded=1;whiteSpace=wrap;html=1;" parent="1" vertex="1">
          <mxGeometry x="1000" y="600" width="120" height="60" as="geometry" />
        </mxCell>
        <mxCell id="efi1Yd8RC44NTfcg2dbb-38" style="edgeStyle=orthogonalEdgeStyle;rounded=0;orthogonalLoop=1;jettySize=auto;html=1;exitX=0.5;exitY=1;exitDx=0;exitDy=0;" edge="1" parent="1" source="sVrVSwpI3EFSwUl0Y2Ym-17">
          <mxGeometry relative="1" as="geometry">
            <mxPoint x="920" y="740.0000000000002" as="targetPoint" />
          </mxGeometry>
        </mxCell>
        <mxCell id="sVrVSwpI3EFSwUl0Y2Ym-17" value="Call respective function/binary to make the necessary changes" style="rounded=1;whiteSpace=wrap;html=1;" parent="1" vertex="1">
          <mxGeometry x="1000" y="735" width="120" height="60" as="geometry" />
        </mxCell>
        <mxCell id="efi1Yd8RC44NTfcg2dbb-7" value="" style="endArrow=classic;html=1;rounded=0;exitX=0.5;exitY=1;exitDx=0;exitDy=0;" edge="1" parent="1" source="sVrVSwpI3EFSwUl0Y2Ym-3" target="sVrVSwpI3EFSwUl0Y2Ym-7">
          <mxGeometry width="50" height="50" relative="1" as="geometry">
            <mxPoint x="1060" y="270" as="sourcePoint" />
            <mxPoint x="1060" y="405" as="targetPoint" />
          </mxGeometry>
        </mxCell>
        <mxCell id="efi1Yd8RC44NTfcg2dbb-8" style="edgeStyle=orthogonalEdgeStyle;rounded=0;orthogonalLoop=1;jettySize=auto;html=1;exitX=0.5;exitY=1;exitDx=0;exitDy=0;entryX=0.5;entryY=0;entryDx=0;entryDy=0;" edge="1" parent="1" source="sVrVSwpI3EFSwUl0Y2Ym-7" target="sVrVSwpI3EFSwUl0Y2Ym-11">
          <mxGeometry relative="1" as="geometry" />
        </mxCell>
        <mxCell id="sVrVSwpI3EFSwUl0Y2Ym-7" value="The Program reads the record file for any new record" style="rounded=1;whiteSpace=wrap;html=1;" parent="1" vertex="1">
          <mxGeometry x="1000" y="335" width="120" height="60" as="geometry" />
        </mxCell>
        <mxCell id="efi1Yd8RC44NTfcg2dbb-9" value="" style="endArrow=classic;html=1;rounded=0;" edge="1" parent="1" target="sVrVSwpI3EFSwUl0Y2Ym-11">
          <mxGeometry width="50" height="50" relative="1" as="geometry">
            <mxPoint x="1059.44" y="465" as="sourcePoint" />
            <mxPoint x="1059" y="535" as="targetPoint" />
          </mxGeometry>
        </mxCell>
        <mxCell id="efi1Yd8RC44NTfcg2dbb-10" style="edgeStyle=orthogonalEdgeStyle;rounded=0;orthogonalLoop=1;jettySize=auto;html=1;exitX=0.5;exitY=1;exitDx=0;exitDy=0;entryX=0.5;entryY=0;entryDx=0;entryDy=0;" edge="1" parent="1" source="sVrVSwpI3EFSwUl0Y2Ym-11" target="sVrVSwpI3EFSwUl0Y2Ym-13">
          <mxGeometry relative="1" as="geometry" />
        </mxCell>
        <mxCell id="sVrVSwpI3EFSwUl0Y2Ym-11" value="If new record detected then fetch one record at a time" style="rounded=1;whiteSpace=wrap;html=1;" parent="1" vertex="1">
          <mxGeometry x="1000" y="480" width="120" height="60" as="geometry" />
        </mxCell>
        <mxCell id="efi1Yd8RC44NTfcg2dbb-19" value="" style="rounded=0;whiteSpace=wrap;html=1;" vertex="1" parent="1">
          <mxGeometry x="940" y="760" as="geometry" />
        </mxCell>
        <mxCell id="efi1Yd8RC44NTfcg2dbb-21" value="" style="whiteSpace=wrap;html=1;aspect=fixed;" vertex="1" parent="1">
          <mxGeometry x="940" y="762.5" as="geometry" />
        </mxCell>
        <mxCell id="efi1Yd8RC44NTfcg2dbb-25" value="" style="endArrow=classic;html=1;rounded=0;entryX=0;entryY=0.5;entryDx=0;entryDy=0;exitX=0;exitY=0.5;exitDx=0;exitDy=0;" edge="1" parent="1" source="sVrVSwpI3EFSwUl0Y2Ym-17" target="sVrVSwpI3EFSwUl0Y2Ym-17">
          <mxGeometry width="50" height="50" relative="1" as="geometry">
            <mxPoint x="820" y="620" as="sourcePoint" />
            <mxPoint x="870" y="570" as="targetPoint" />
          </mxGeometry>
        </mxCell>
        <mxCell id="efi1Yd8RC44NTfcg2dbb-31" value="" style="shape=flexArrow;endArrow=classic;html=1;rounded=0;exitX=1;exitY=0.25;exitDx=0;exitDy=0;entryX=0;entryY=0.448;entryDx=0;entryDy=0;entryPerimeter=0;" edge="1" parent="1" source="ob07LAOkWRFPLTpur0Br-10" target="qYYsV1Sxn3G5JcnXwC1t-21">
          <mxGeometry width="50" height="50" relative="1" as="geometry">
            <mxPoint x="670" y="340" as="sourcePoint" />
            <mxPoint x="670" y="280" as="targetPoint" />
          </mxGeometry>
        </mxCell>
        <mxCell id="efi1Yd8RC44NTfcg2dbb-33" value="" style="shape=flexArrow;endArrow=classic;html=1;rounded=0;exitX=0;exitY=0.553;exitDx=0;exitDy=0;exitPerimeter=0;entryX=1;entryY=0.75;entryDx=0;entryDy=0;" edge="1" parent="1" source="qYYsV1Sxn3G5JcnXwC1t-21" target="ob07LAOkWRFPLTpur0Br-10">
          <mxGeometry width="50" height="50" relative="1" as="geometry">
            <mxPoint x="610" y="490" as="sourcePoint" />
            <mxPoint x="660" y="440" as="targetPoint" />
          </mxGeometry>
        </mxCell>
        <mxCell id="efi1Yd8RC44NTfcg2dbb-34" value="" style="endArrow=classic;html=1;rounded=0;entryX=0.5;entryY=0;entryDx=0;entryDy=0;exitX=-0.004;exitY=0.451;exitDx=0;exitDy=0;exitPerimeter=0;" edge="1" parent="1" source="qYYsV1Sxn3G5JcnXwC1t-21" target="sVrVSwpI3EFSwUl0Y2Ym-2">
          <mxGeometry width="50" height="50" relative="1" as="geometry">
            <mxPoint x="680" y="230" as="sourcePoint" />
            <mxPoint x="730" y="180" as="targetPoint" />
            <Array as="points">
              <mxPoint x="690" y="286" />
              <mxPoint x="690" y="240" />
              <mxPoint x="690" y="200" />
              <mxPoint x="780" y="200" />
            </Array>
          </mxGeometry>
        </mxCell>
        <mxCell id="efi1Yd8RC44NTfcg2dbb-35" style="edgeStyle=orthogonalEdgeStyle;rounded=0;orthogonalLoop=1;jettySize=auto;html=1;exitX=0.5;exitY=1;exitDx=0;exitDy=0;entryX=-0.004;entryY=0.559;entryDx=0;entryDy=0;entryPerimeter=0;" edge="1" parent="1" source="sVrVSwpI3EFSwUl0Y2Ym-2" target="qYYsV1Sxn3G5JcnXwC1t-21">
          <mxGeometry relative="1" as="geometry">
            <Array as="points">
              <mxPoint x="780" y="400" />
              <mxPoint x="690" y="400" />
              <mxPoint x="690" y="317" />
            </Array>
          </mxGeometry>
        </mxCell>
        <mxCell id="efi1Yd8RC44NTfcg2dbb-36" value="" style="shape=flexArrow;endArrow=classic;html=1;rounded=0;exitX=1;exitY=0.25;exitDx=0;exitDy=0;" edge="1" parent="1" source="qYYsV1Sxn3G5JcnXwC1t-6">
          <mxGeometry width="50" height="50" relative="1" as="geometry">
            <mxPoint x="600" y="710" as="sourcePoint" />
            <mxPoint x="920" y="705" as="targetPoint" />
          </mxGeometry>
        </mxCell>
        <mxCell id="efi1Yd8RC44NTfcg2dbb-37" value="" style="shape=flexArrow;endArrow=classic;html=1;rounded=0;exitX=-0.001;exitY=0.775;exitDx=0;exitDy=0;exitPerimeter=0;entryX=1;entryY=0.75;entryDx=0;entryDy=0;" edge="1" parent="1" source="efi1Yd8RC44NTfcg2dbb-4" target="qYYsV1Sxn3G5JcnXwC1t-6">
          <mxGeometry width="50" height="50" relative="1" as="geometry">
            <mxPoint x="750" y="800" as="sourcePoint" />
            <mxPoint x="800" y="750" as="targetPoint" />
          </mxGeometry>
        </mxCell>
      </root>
    </mxGraphModel>
  </diagram>
</mxfile>
